# xmcd
#
# Track frame offsets:
# 182
# 11672
# 25725
# 35877
# 49712
# 63990
# 77082
# 91247
# 106510
# 122260
# 135585
#
# Disc length: 1955 seconds
#
# Revision: 0
# Processed by: cddbd v1.5.1PL0 Copyright (c) Steve Scherf et al.
# Submitted via: Audion 3.0.2 (http://www.panic.com/audion/)
#
DISCID=7d07a10b
DTITLE=Maysa - Grandes Exitos
DYEAR=1900
DGENRE=
TTITLE0=A felicidade
TTITLE1=Vivir en paz
TTITLE2=Y de ahi, de ahi
TTITLE3=Qué es lo que falta
TTITLE4=Mañana de Carnaval
TTITLE5=Himno al amor
TTITLE6=Yo se que voy a amarte
TTITLE7=La noche de nosotros dos
TTITLE8=Castigo
TTITLE9=Por la calle
TTITLE10=Recado
EXTD=
EXTT0=
EXTT1=
EXTT2=
EXTT3=
EXTT4=
EXTT5=
EXTT6=
EXTT7=
EXTT8=
EXTT9=
EXTT10=
PLAYORDER=
